<?xml version="1.0" encoding="iso-8859-1"?>
<!-- Generator: Adobe Illustrator 19.0.0, SVG Export Plug-In . SVG Version: 6.00 Build 0)  -->
<svg version="1.1" id="Capa_1" xmlns="http://www.w3.org/2000/svg" xmlns:xlink="http://www.w3.org/1999/xlink" x="0px" y="0px"
	 viewBox="0 0 512.002 512.002" style="enable-background:new 0 0 512.002 512.002;" xml:space="preserve">
<path style="fill:#FD6F71;" d="M235.135,235.135c-75.21,75.21-99.904,39.94-209.131,187.09c-8.083,10.889-5.508,26.319,5.69,33.969
	l1.943,1.327c4.363,2.98,9.587,4.359,14.866,4.121c10.327-0.466,32.356,3.183,67.603,31.309
	c51.268,40.911,109.929,7.107,136.268-19.232c28.858-23.552,68.4-78.509,32.862-133.638c-12.18-18.893-18.639-33.907-21.868-45.48
	c-5.289-18.958,12.276-36.523,31.234-31.234c11.573,3.229,26.586,9.688,45.48,21.868c55.128,35.538,110.086-4.002,133.638-32.862
	c26.34-26.34,60.143-85,19.232-136.268c-28.126-35.247-31.776-57.276-31.309-67.603c0.238-5.279-1.14-10.503-4.121-14.866
	l-1.327-1.943c-7.65-11.198-23.08-13.772-33.969-5.69C275.075,135.231,310.344,159.925,235.135,235.135z"/>
<path style="fill:#85E7FF;" d="M85.968,403.053c20.067-25.539,60.153-71.83,120.394-99.296c8.136-3.71,17.736-1.855,23.928,4.596
	c22.19,23.118,65.409,81.182,4.368,143.205c-57.374,58.296-116.979,8.774-146.824-20.395
	C80.132,423.636,79.314,411.522,85.968,403.053z"/>
<path style="fill:#57D0E6;" d="M109.686,409.31c-7.701-7.526-8.519-19.642-1.866-28.11c5.661-7.205,12.917-16.063,21.768-25.682
	c-19.299,17.719-33.845,35.091-43.622,47.536c-6.653,8.467-5.835,20.583,1.866,28.11c29.845,29.17,89.451,78.691,146.824,20.395
	c3.775-3.835,7.147-7.655,10.154-11.453C191.186,481.359,137.507,436.5,109.686,409.31z"/>
<path style="fill:#FADC60;" d="M61.163,438.023c2.904-2.83,1.302-7.761-2.711-8.344l-13.169-1.913
	c-1.594-0.232-2.971-1.232-3.684-2.676l-5.889-11.933c-1.795-3.637-6.981-3.637-8.775,0l-5.889,11.933
	c-0.713,1.444-2.09,2.445-3.684,2.676l-13.169,1.913c-4.013,0.583-5.614,5.515-2.711,8.344l9.528,9.288
	c1.154,1.124,1.679,2.743,1.407,4.33l-2.248,13.116c-0.685,3.997,3.51,7.044,7.099,5.157l11.778-6.192
	c1.425-0.749,3.128-0.749,4.553,0l11.778,6.192c3.589,1.887,7.784-1.161,7.099-5.157l-2.249-13.115
	c-0.272-1.587,0.253-3.206,1.407-4.33L61.163,438.023z"/>
<path style="fill:#85E7FF;" d="M403.053,85.968c-25.539,20.067-71.83,60.153-99.296,120.394c-3.71,8.136-1.855,17.736,4.596,23.928
	c23.118,22.19,81.182,65.409,143.205,4.368c58.296-57.374,8.774-116.979-20.395-146.824
	C423.636,80.132,411.52,79.315,403.053,85.968z"/>
<path style="fill:#57D0E6;" d="M330.206,208.437c-6.451-6.192-8.304-15.792-4.596-23.928c14.083-30.889,33.114-56.464,51.76-76.773
	c-24.479,22.523-53.897,55.38-73.614,98.626c-3.71,8.136-1.856,17.736,4.596,23.928c23.118,22.19,81.182,65.409,143.204,4.368
	c3.955-3.893,7.398-7.795,10.401-11.699C404.341,268.579,351.895,229.255,330.206,208.437z"/>
<path style="fill:#FADC60;" d="M463.722,33.601c-0.75-1.426-0.75-3.128,0-4.553l6.192-11.778c1.886-3.589-1.161-7.784-5.157-7.099
	l-13.115,2.25c-1.587,0.272-3.206-0.254-4.331-1.407l-9.288-9.529c-2.831-2.904-7.761-1.301-8.346,2.711l-1.914,13.169
	c-0.232,1.594-1.232,2.971-2.676,3.684l-11.933,5.89c-3.637,1.795-3.637,6.979,0,8.774l11.933,5.89
	c1.444,0.713,2.445,2.09,2.676,3.684l1.914,13.169c0.583,4.013,5.515,5.616,8.346,2.711l9.288-9.529
	c1.124-1.153,2.743-1.679,4.331-1.407l13.115,2.25c3.996,0.685,7.044-3.51,5.157-7.099L463.722,33.601z"/>
<g>
</g>
<g>
</g>
<g>
</g>
<g>
</g>
<g>
</g>
<g>
</g>
<g>
</g>
<g>
</g>
<g>
</g>
<g>
</g>
<g>
</g>
<g>
</g>
<g>
</g>
<g>
</g>
<g>
</g>
</svg>
